<?xml version="1.0" encoding="utf-8"?>
<!-- Generator: Adobe Illustrator 16.0.0, SVG Export Plug-In . SVG Version: 6.00 Build 0)  -->
<!DOCTYPE svg PUBLIC "-//W3C//DTD SVG 1.1//EN" "http://www.w3.org/Graphics/SVG/1.1/DTD/svg11.dtd">
<svg version="1.1" id="图层_1" xmlns="http://www.w3.org/2000/svg" xmlns:xlink="http://www.w3.org/1999/xlink" x="0px" y="0px"
	 width="200px" height="200px" viewBox="0 0 200 200" enable-background="new 0 0 200 200" xml:space="preserve">
<ellipse id="Oval-1-Copy-2" fill="#E6133C" cx="100.68" cy="99.928" rx="100.678" ry="99.928"/>
<path fill="#FFFFFF" d="M146.313,92.436c-9.352-9.306-23.843-15.82-36.934-18.611c11.221,11.167,23.376,35.361,26.181,87.472
	c0-0.466,0.467-0.466,0.467-0.932c2.338-2.326,6.078-6.048,10.286-8.84c2.804-1.86,9.35-3.257,14.024-2.325
	c4.676,0.931,6.545,1.396,6.545-2.793C167.818,126.866,161.74,106.86,146.313,92.436L146.313,92.436z M87.407,123.608
	c-7.947,0.467-16.362,12.097-16.83,30.243h10.284c7.948,0,14.961,0.931,21.506,1.862v-1.862
	C102.368,138.033,95.355,123.143,87.407,123.608L87.407,123.608z M116.86,31.02c-0.935-0.466-5.142-1.397-7.012-0.932
	c-2.807,0.932-8.884,8.841-10.753,16.75c-1.87,7.444-1.87,25.125-1.87,25.125c-18.232,0-34.128,9.306-45.348,25.125
	c-10.753,15.819-14.026,37.687-14.961,55.368c0,4.188,7.947,1.86,12.155,1.86c5.143-0.465,10.285-0.465,15.895-0.465
	c0-20.938,10.285-35.826,21.973-35.361c12.623,0.466,20.572,15.354,20.572,35.826v2.791c5.608,1.396,11.219,2.792,16.829,4.188
	c2.806,0.93,5.142,1.861,6.544,2.326c-1.402-36.757-9.816-76.305-28.049-89.798c-1.403-6.048-0.936-11.632-0.468-16.75
	c15.427,5.583,32.258,4.188,35.063-3.257c4.208-10.702-15.895-20.008-20.57-22.799V31.02z M131.819,51.957
	c-0.935,2.792-6.077,4.188-12.154,3.722c-7.013-0.465-15.427-3.257-15.895-3.722c-0.468-1.396,0.935-5.118,2.337-8.84
	c1.402-3.257,3.74-6.514,5.61-6.514C114.056,36.137,133.691,45.443,131.819,51.957L131.819,51.957L131.819,51.957z"/>
</svg>
