<?xml version="1.0" encoding="utf-8"?>
<!-- Generator: Adobe Illustrator 16.0.0, SVG Export Plug-In . SVG Version: 6.00 Build 0)  -->
<!DOCTYPE svg PUBLIC "-//W3C//DTD SVG 1.1//EN" "http://www.w3.org/Graphics/SVG/1.1/DTD/svg11.dtd">
<svg version="1.1" id="图层_1" xmlns="http://www.w3.org/2000/svg" xmlns:xlink="http://www.w3.org/1999/xlink" x="0px" y="0px"
	 width="200px" height="200px" viewBox="0 0 200 200" enable-background="new 0 0 200 200" xml:space="preserve">
<path fill="#76A22D" d="M73.381,50.801c0,0-11.952-13.935-28.17-2.553C30.7,59.11,33.263,78.993,33.263,78.993
	S1.027,86.584,1.027,126.418c0.723,39.776,35.008,40.177,35.008,40.177l68.307-0.126l-31.691-34.722l17.561,0.229l0.002-42.07
	l22.513-0.185l0.162,42.142l17.156,0.295l-25.703,34.437h57.813c0,0,31.907,0.037,36.389-37.802
	c2.134-41.386-30.842-49.542-30.842-49.542s3.752-61.263-42.554-68.247C85.457,6.091,73.381,50.801,73.381,50.801z"/>
</svg>
