<?xml version="1.0" encoding="utf-8"?>
<!-- Generator: Adobe Illustrator 19.0.0, SVG Export Plug-In . SVG Version: 6.00 Build 0)  -->
<svg version="1.1" id="图层_1" xmlns="http://www.w3.org/2000/svg" xmlns:xlink="http://www.w3.org/1999/xlink" x="0px" y="0px"
	 viewBox="0 0 595.3 841.9" style="enable-background:new 0 0 595.3 841.9;" xml:space="preserve">
<style type="text/css">
	.st0{fill-rule:evenodd;clip-rule:evenodd;fill:#FFFFFF;}
</style>
<g>
	<path class="st0" d="M269.4,603.3c-4,0-7.6-2.4-9.1-6.1c-0.1-0.3-5.2-12.2-27.3-50.4c-12.3-21.2-21.3-42.3-29.2-61
		c-6.9-16.3-13.5-31.7-21.2-45c-5.8-9.8-6.1-20.7-0.9-29.7c6-10.5,18.7-17.2,32.5-17.2c8.2,0,15.7,2.3,22.2,6.4l1.1-92
		c0.3-12.9,7.9-36.9,34-36.9c9.9,0.1,17.7,3.4,23.3,9.5c9.3,10.1,9.3,24.3,9.2,27.6l1.1,41.2c4.2-1.8,9.1-2.8,14.4-2.8
		c13.7,0.1,23.5,4.3,29.7,12.3c1.4,1.8,2.5,3.7,3.3,5.6c5.1-2.3,11-3.3,18.2-2.8c9.8,0.7,17.9,4.6,23.4,11.3
		c2.5,3.1,4.4,6.7,5.6,10.3c5.3-2.4,11.5-2.9,18.2-1.4c24.2,5.4,28.7,30.6,27.7,43.6l0.1,39c0.1,1.6,1.1,47.1-25.4,92.3
		c-18.1,30.9-22.1,38.1-23,39.8c-0.4,1-0.9,1.9-1.6,2.7c-2,2.4-5.1,3.7-8.1,3.5L269.4,603.3L269.4,603.3L269.4,603.3z M214.1,413.6
		c-6.6,0-13,3-15.5,7.4c-1.7,2.9-1.4,6.2,0.8,10.1c8.4,14.3,15.2,30.3,22.4,47.2c8.1,19,16.5,38.7,28.1,58.8
		c14.7,25.4,22.2,39.6,25.7,46.7l106.8,0c3.2-5.8,9.3-16.3,21.1-36.3c23.7-40.4,22.7-81.7,22.7-82.1l-0.1-39.7c0-0.3,0-0.6,0-0.9
		c0.1-0.8,1.4-20.2-12.4-23.3c-1.1-0.3-2.2-0.4-3.1-0.4c-1.6,0-6.4,0-8.9,10c-0.5,3.3-1,5.3-1,5.3c-1.2,5-6.1,8.1-11.1,7.3
		c-5-0.8-8.6-5.3-8.2-10.4c0-0.4,0.2-2.7,1-5.9c1.2-9.5-0.1-17.5-3.4-21.6c-1.3-1.6-3.7-3.8-9.6-4.2c-7.9-0.5-13.2,0.8-14.3,10.8
		l0.4,9.5c0.2,5.1-3.6,9.5-8.6,10.1c-5.1,0.7-9.8-2.8-10.7-7.8c-0.1-0.6-1.1-5.7-0.6-12.2l-0.2-6.1c0-0.9,0.1-1.9,0.3-2.8l0,0
		c0,0,1.6-7.5-1.8-11.9c-2.9-3.7-9.1-4.5-13.8-4.6h0c-6.2,0-12,1.5-13.9,12.4l0.5,19.4c0.1,5.1-3.6,9.4-8.6,10
		c-5.1,0.7-9.7-2.7-10.7-7.7c-0.1-0.5-2.4-11.4-0.8-22.9l-1.9-69c0-0.3,0-0.6,0-0.9c0.1-2.4-0.3-9.7-4-13.7c-1.9-2-4.7-3.1-8.6-3.1
		l0,0c-13.9,0-14.7,15.9-14.8,17.7l-1.4,119.1c-0.1,4.7-3.4,8.7-8.1,9.5c-4.6,0.8-9.2-1.7-10.9-6.1
		C230.5,415.3,218.8,413.6,214.1,413.6L214.1,413.6L214.1,413.6z"/>
</g>
</svg>
