<?xml version="1.0" encoding="utf-8"?>
<!-- Generator: Adobe Illustrator 17.0.0, SVG Export Plug-In . SVG Version: 6.00 Build 0)  -->
<!DOCTYPE svg PUBLIC "-//W3C//DTD SVG 1.1//EN" "http://www.w3.org/Graphics/SVG/1.1/DTD/svg11.dtd">
<svg version="1.1" id="图层_1" xmlns="http://www.w3.org/2000/svg" xmlns:xlink="http://www.w3.org/1999/xlink" x="0px" y="0px"
	 width="44.053px" height="44.053px" viewBox="0 0 44.053 44.053" enable-background="new 0 0 44.053 44.053" xml:space="preserve">
<rect x="0.275" fill="#FFFFFF" width="43.778" height="44.053"/>
<path fill="#FFAA0D" d="M40.678,0H3.375C1.511,0,0,1.511,0,3.375v37.303c0,1.864,1.511,3.375,3.375,3.375h37.303
	c1.864,0,3.375-1.511,3.375-3.375V3.375C44.053,1.511,42.542,0,40.678,0z M26.231,8.302c2.104,0,3.809,1.405,3.809,3.139
	c0,0.031-0.01,0.059-0.011,0.089c-0.498-1.348-2-2.335-3.798-2.335s-3.301,0.987-3.798,2.335c-0.001-0.03-0.011-0.059-0.011-0.089
	C22.422,9.707,24.127,8.302,26.231,8.302z M17.33,8.302c2.104,0,3.809,1.405,3.809,3.139c0,0.031-0.01,0.059-0.011,0.089
	c-0.498-1.348-2-2.335-3.798-2.335s-3.3,0.987-3.798,2.335c-0.001-0.03-0.011-0.059-0.011-0.089
	C13.521,9.707,15.226,8.302,17.33,8.302z M11.725,17.442c0-3.213,2.614-5.827,5.826-5.827c1.63,0,3.104,0.675,4.163,1.758
	c1.059-1.083,2.533-1.758,4.163-1.758c3.213,0,5.826,2.614,5.826,5.827v6.273c0,0.919-0.745,1.664-1.664,1.664
	s-1.664-0.745-1.664-1.664v-6.273c0-1.378-1.12-2.499-2.498-2.499s-2.499,1.121-2.499,2.499v6.273c0,0.919-0.745,1.664-1.664,1.664
	s-1.664-0.745-1.664-1.664v-6.273c0-1.378-1.121-2.499-2.499-2.499c-1.377,0-2.498,1.121-2.498,2.499v6.273
	c0,0.919-0.745,1.664-1.664,1.664s-1.664-0.745-1.664-1.664C11.725,23.715,11.725,17.442,11.725,17.442z M41.522,28.781
	c-0.411,0.393-1.346,0.122-2.329-0.601c-1.727,1.823-8.046,7.649-18.352,7.649c-10.453,0-16.834-7.864-17.101-8.199
	c-0.368-0.463-0.292-1.136,0.17-1.505c0.463-0.37,1.137-0.294,1.506,0.168c0.059,0.074,6.028,7.392,15.424,7.392
	c9.479,0,15.364-5.482,16.819-7.008c-0.91-1.167-1.278-2.332-0.809-2.78c0.551-0.527,2.044,0.139,3.333,1.487
	C41.474,26.733,42.073,28.254,41.522,28.781z"/>
</svg>
