<?xml version="1.0" encoding="utf-8"?>
<!-- Generator: Adobe Illustrator 16.0.0, SVG Export Plug-In . SVG Version: 6.00 Build 0)  -->
<!DOCTYPE svg PUBLIC "-//W3C//DTD SVG 1.1//EN" "http://www.w3.org/Graphics/SVG/1.1/DTD/svg11.dtd">
<svg version="1.1" id="图层_1" xmlns="http://www.w3.org/2000/svg" xmlns:xlink="http://www.w3.org/1999/xlink" x="0px" y="0px"
	 width="200px" height="200px" viewBox="0 0 200 200" enable-background="new 0 0 200 200" xml:space="preserve">
<ellipse id="Oval-1-Copy-2" fill="#E6133C" cx="99.416" cy="99.416" rx="99.416" ry="99.416"/>
<path fill="#FFFFFF" d="M165.74,155.473c0.176,0.584,0.3,1.192,0.3,1.835c0,3.529-2.858,6.389-6.385,6.389
	c-3.525,0-6.383-2.859-6.383-6.389c0-0.007,0.002-0.014,0.002-0.021h-0.168c-1.662-26.741-23.809-47.932-50.961-47.932
	c-27.153,0-49.299,21.19-50.962,47.932h-0.151c0,0.007,0.003,0.014,0.003,0.021c0,3.529-2.858,6.389-6.385,6.389
	c-3.526,0-6.383-2.859-6.383-6.389c0-0.604,0.111-1.179,0.269-1.735c1.854-24.265,17.182-44.752,38.58-53.88
	c-9.953-7.26-16.446-18.979-16.446-32.245c0-22.047,17.867-39.923,39.909-39.923c22.041,0,39.908,17.876,39.908,39.923
	c0,12.795-6.04,24.156-15.399,31.461C147.521,109.562,163.787,130.486,165.74,155.473z M127.694,69.447
	c0-14.979-12.162-27.12-27.163-27.12c-15.002,0-27.164,12.142-27.164,27.12c0,14.978,12.161,27.12,27.164,27.12
	C115.532,96.567,127.694,84.425,127.694,69.447z"/>
</svg>
