<?xml version="1.0" standalone="no"?><!DOCTYPE svg PUBLIC "-//W3C//DTD SVG 1.1//EN" "http://www.w3.org/Graphics/SVG/1.1/DTD/svg11.dtd"><svg width="200" height="200" viewBox="0 0 200 200" version="1.1" xmlns="http://www.w3.org/2000/svg" xmlns:xlink="http://www.w3.org/1999/xlink"><defs><style type="text/css"><![CDATA[
@font-face { font-family: ifont; src: url("http://at.alicdn.com/t/font_1442373896_4754455.eot?#iefix") format("embedded-opentype"), url("http://at.alicdn.com/t/font_1442373896_4754455.woff") format("woff"), url("http://at.alicdn.com/t/font_1442373896_4754455.ttf") format("truetype"), url("http://at.alicdn.com/t/font_1442373896_4754455.svg#ifont") format("svg"); }

]]></style></defs><g class="transform-group"><g transform="scale(0.1953125, 0.1953125)"><path d="M892.626847 637.968457l-760.256357-2.993341c-15.939755 0-31.220269-2.821841-45.834244-8.46674-14.615192-5.649764-27.234418-13.783235-37.862543-24.41136-10.628125-10.628125-19.09973-23.41885-25.409951-38.36123-6.309005-14.947245-9.464115-32.052225-9.464115-51.31859 0-18.596178 3.155111-35.699942 9.464115-51.312509 6.310221-15.607702 14.781827-28.73048 25.409951-39.359821 10.628125-10.628125 23.247351-18.928231 37.862543-24.910048 14.613976-5.976952 29.89449-8.965428 45.834244-8.965428l760.256357 0c15.939755 0 31.053634 2.988476 45.335557 8.965428 14.281923 5.981817 26.734514 14.281923 37.363855 24.910048 10.628125 10.629341 19.09973 23.75212 25.409951 39.359821 6.310221 15.612567 9.464115 32.716331 9.464115 51.312509 0 19.266365-3.155111 36.53798-9.464115 51.817278-6.310221 15.275649-14.78061 28.393562-25.409951 39.35374s-23.081932 19.433-37.363855 25.409951S908.567818 637.968457 892.626847 637.968457L892.626847 637.968457zM892.626847 637.968457" fill="#E6133C"></path></g></g></svg>