<?xml version="1.0" encoding="utf-8"?>
<!-- Generator: Adobe Illustrator 19.0.0, SVG Export Plug-In . SVG Version: 6.00 Build 0)  -->
<svg version="1.1" id="图层_1" xmlns="http://www.w3.org/2000/svg" xmlns:xlink="http://www.w3.org/1999/xlink" x="0px" y="0px"
	 viewBox="-447 321 128.1 128" style="enable-background:new -447 321 128.1 128;" xml:space="preserve">
<style type="text/css">
	.st0{fill:#CDCDCD;}
	.st1{font-family:'FZXZYJW--GB1-0';}
	.st2{font-size:31.0383px;}
</style>
<path class="st0" d="M-327.2,325.8c-1.7-1.7-3.5-3.3-5.3-4.8h-14c12.4,6.9,22.2,17.9,27.6,31.2v-16.6
	C-321.4,332.1-324.1,328.9-327.2,325.8z"/>
<path class="st0" d="M-376.7,437.6c-34.3,0-62.2-27.9-62.2-62.2c0-23.4,12.9-43.8,32-54.4h-14c-1.9,1.5-3.6,3.1-5.3,4.8
	c-6.4,6.4-11.5,13.9-15,22.3c-3.6,8.6-5.5,17.8-5.5,27.3s1.9,18.6,5.5,27.3c3.5,8.3,8.6,15.8,15,22.3s13.9,11.5,22.3,15
	c8.6,3.7,17.8,5.5,27.3,5.5c9.5,0,18.6-1.9,27.3-5.5c8.3-3.5,15.8-8.6,22.3-15c3-3,5.8-6.3,8.2-9.8v-16.6
	C-328.2,421.5-350.6,437.6-376.7,437.6z"/>
<path class="st0" d="M-428.4,376.6c0,13.8,5.4,26.7,15.1,36.5c9.7,9.8,22.7,15.1,36.5,15.1s26.7-5.4,36.5-15.1
	c9.8-9.7,15.1-22.7,15.1-36.5s-5.4-26.7-15.1-36.5c-9.8-9.7-22.7-15.1-36.5-15.1s-26.7,5.4-36.5,15.1
	C-423,349.9-428.4,362.8-428.4,376.6z M-376.8,327.8c26.9,0,48.8,21.9,48.8,48.8s-21.9,48.8-48.8,48.8s-48.8-21.9-48.8-48.8
	C-425.6,349.7-403.7,327.8-376.8,327.8z"/>
<text transform="matrix(0.8911 -0.4539 0.4539 0.8911 -413.2874 408.1973)" class="st0 st1 st2">已过期</text>
</svg>
