<?xml version="1.0" encoding="utf-8"?>
<!-- Generator: Adobe Illustrator 19.0.0, SVG Export Plug-In . SVG Version: 6.00 Build 0)  -->
<svg version="1.1" id="图层_1" xmlns="http://www.w3.org/2000/svg" xmlns:xlink="http://www.w3.org/1999/xlink" x="0px" y="0px"
	 viewBox="0 0 609.5 609.5" style="enable-background:new 0 0 609.5 609.5;" xml:space="preserve">
<style type="text/css">
	.st0{fill-rule:evenodd;clip-rule:evenodd;fill:#B4B4B4;}
	.st1{fill-rule:evenodd;clip-rule:evenodd;fill:none;stroke:#A9B7B7;stroke-width:4;stroke-miterlimit:10;}
	.st2{clip-path:url(#SVGID_2_);fill-rule:evenodd;clip-rule:evenodd;fill:#B4B4B4;}
</style>
<g>
	<path class="st0" d="M111.3,507.9c0-0.6,5.7-20.9,12.6-45.1c14.1-49.2,21-66.3,28.9-71.5c3-1.9,22.2-9.2,42.7-16.2
		c38.3-13,61.1-23.5,68.4-31.6c2.7-2.9,4.5-9.6,5.3-18.6c1.1-13.8,0.9-14.3-8.4-26c-5.3-6.6-11.8-18.1-14.6-25.8
		c-2.8-7.6-6-13.9-7.1-13.9c-6.4,0-14.8-36.4-9.2-39.8c1-0.6,0.8-7.3-0.4-14.8c-2.9-17.8,1.3-43,9-53.5c3-4.1,7.4-11.6,9.8-16.6
		c10.6-22.4,30.3-28.3,68.5-20.4c16.9,3.5,32.1,3.5,39.6,0.1c5.2-2.4,11.3,12.1,11.3,26.8c0,6.7,1.7,17.1,3.8,23.1
		c2.9,8.5,3.5,16,2.5,32.4c-0.7,12.1-0.4,22,0.8,22.7c6.4,3.9-1.2,35.6-9.6,40.1c-2.4,1.3-4.3,4.1-4.4,6.2
		c-0.1,6.6-8.5,23.1-17.4,33.9c-8.2,10-8.4,10.6-6.9,24.4c2.4,23.4,12.9,30.6,75,51.8c57.2,19.5,52.7,13.6,70.7,91.2
		c5,21.6,9.1,39.9,9.1,40.6c0,0.7-85.5,1.3-190.1,1.3C196.9,509,111.3,508.5,111.3,507.9L111.3,507.9z"/>
</g>
<circle class="st1" cx="301.4" cy="309.9" r="291.6"/>
<g>
	<defs>
		<circle id="SVGID_1_" cx="301.4" cy="287.3" r="291.6"/>
	</defs>
	<clipPath id="SVGID_2_">
		<use xlink:href="#SVGID_1_"  style="overflow:visible;"/>
	</clipPath>
	<path class="st2" d="M105,508c0,0,58.6,44.8,82,54.7S276.9,587,301.6,587c24.7,0,72.5-5.5,96.9-15.5c24.4-9.9,46.8-23.2,55.9-29.8
		s37.1-34.1,37.1-34.1"/>
</g>
</svg>
