<?xml version="1.0" standalone="no"?><!DOCTYPE svg PUBLIC "-//W3C//DTD SVG 1.1//EN" "http://www.w3.org/Graphics/SVG/1.1/DTD/svg11.dtd"><svg t="1494303123637" class="icon" style="" viewBox="0 0 1024 1024" version="1.1" xmlns="http://www.w3.org/2000/svg" p-id="1138" xmlns:xlink="http://www.w3.org/1999/xlink" width="200" height="200"><defs><style type="text/css"></style></defs><path d="M722.162022 300.050774l89.803305 0 0-89.804329-89.803305 0L722.162022 300.050774zM452.760293 240.181221l0 119.735012 59.867506 0 0-59.865459 59.867506 0L572.495304 180.315762l-59.867506 0 0 59.865459L452.760293 240.181221zM901.765563 288.248983 901.765563 120.446209 733.989395 120.446209C668.706553 83.228563 593.151763 61.960167 512.626775 61.960167S356.546997 83.228563 291.263132 120.446209L123.486964 120.446209l0 167.777191c-37.217646 65.283866-58.486042 140.838655-58.486042 221.363643 0 80.524988 21.268396 156.079778 58.486042 221.364667l0 167.772075L291.256992 898.723785c65.285912 37.219693 140.842749 58.489112 221.369783 58.489112 80.529081 0 156.087964-21.270443 221.3749-58.492182l-41.773406 0L692.228269 838.858326l59.869552 0 0-59.869552 29.931706 0 0 59.869552-29.931706 0 0 59.865459 59.867506 0L811.965328 838.858326l29.931706 0 0-59.869552 59.868529 0 0-48.063669c37.211507-65.280796 58.487066-140.821259 58.487066-221.339084S938.97707 353.528756 901.765563 288.248983zM692.228269 180.315762l149.668765 0 0 149.669788-149.668765 0L692.228269 180.315762zM183.355493 180.315762l149.669788 0 0 149.669788L183.355493 329.98555 183.355493 180.315762zM333.024258 838.858326 183.355493 838.858326 183.355493 689.187515l149.669788 0L333.025281 838.858326zM900.135436 509.590114l-58.238402 0 0-59.868529-59.867506 0 0 59.868529-59.867506 0 0 59.866483 177.973414 0 0 89.797166-58.238402 0 0-59.862389L632.35974 599.391373l0 59.862389L512.627798 659.253762l0 59.869552-59.867506 0L452.760293 838.858326l59.867506 0 0-59.869552 119.731942 0 0-59.866483 59.868529 0 0-59.869552 59.869552 0 0 59.869552-59.869552 0 0 59.866483-59.868529 0 0 119.731942-59.864436 0L572.495304 838.858326l-59.867506 0 0 59.862389L392.891763 898.720715 392.891763 629.320009 123.49208 629.320009 123.49208 509.590114l59.863413 0 0-59.868529-59.863413 0 0-59.869552L392.891763 389.852032 392.891763 120.452349l59.867506 0 0 59.863413 59.867506 0 0-59.863413 119.731942 0 0 269.39866 267.775696 0L900.134413 509.590114zM901.765563 898.723785 901.765563 838.858326l-59.868529 0 0 59.865459L901.765563 898.723785zM213.288223 300.050774l89.802282 0 0-89.804329-89.802282 0L213.288223 300.050774zM572.495304 449.720561l0-89.804329-59.867506 0 0 89.804329-269.405823 0 0 59.868529-59.866483 0 0 59.866483 119.735012 0 0-59.866483 59.867506 0 0 59.866483 149.669788 0 0-59.866483 59.867506 0 0 59.866483 89.799212 0 0-59.866483 59.867506 0 0-59.868529L572.495304 449.720561zM303.090505 719.122291l-89.802282 0 0 89.800235 89.802282 0L303.090505 719.122291zM452.760293 599.390349l0 59.862389 59.867506 0 0-59.862389L452.760293 599.390349z" p-id="1139" fill="#e6e6e6"></path></svg>