<?xml version="1.0" encoding="utf-8"?>
<!-- Generator: Adobe Illustrator 16.0.0, SVG Export Plug-In . SVG Version: 6.00 Build 0)  -->
<!DOCTYPE svg PUBLIC "-//W3C//DTD SVG 1.1//EN" "http://www.w3.org/Graphics/SVG/1.1/DTD/svg11.dtd">
<svg version="1.1" id="图层_1" xmlns="http://www.w3.org/2000/svg" xmlns:xlink="http://www.w3.org/1999/xlink" x="0px" y="0px"
	 width="612px" height="792px" viewBox="0 0 612 792" enable-background="new 0 0 612 792" xml:space="preserve">
<g>
	<path fill="#FFAA0D" d="M303.184,170.12c-130.199,0-235.669,101.225-235.669,226.181c0,124.957,105.588,226.181,235.669,226.181
		c130.08,0,235.669-101.224,235.669-226.181C538.97,271.458,433.383,170.12,303.184,170.12L303.184,170.12z M303.184,581.428
		c-106.526,0-192.778-82.889-192.778-185.015c0-102.236,86.369-185.016,192.778-185.016c106.525,0,192.777,82.892,192.777,185.016
		C495.961,498.539,409.709,581.428,303.184,581.428L303.184,581.428z"/>
	<path fill="#FFAA0D" d="M402.092,307.111l-9.141-6.073c-7.616-5.062-18.165-3.262-23.438,3.937L265.801,436.679l-48.4-48.137
		c-5.743-6.525-15.821-7.426-22.735-1.913l-8.203,6.636c-6.797,5.51-7.734,15.182-1.991,21.705l62.696,62.31l1.874,1.913
		c0,0,0.704,0.562,1.758,1.461l0,0c0.469,0.338,0.704,0.675,1.172,1.014l0.234,0.11c2.578,2.026,6.094,4.613,8.789,6.075l0,0
		c7.618,5.061,18.282,3.149,23.673-4.163l121.643-154.422C411.585,322.07,409.709,312.172,402.092,307.111L402.092,307.111z"/>
	<path fill="#FFAA0D" d="M387.092,314.084c-3.164,0-6.094,0.9-8.555,2.475c-1.758,0.899-3.399,2.137-4.688,3.937L264.042,451.637
		l-51.095-51.062c-2.461-2.813-5.859-4.162-9.375-4.049c-0.586-0.113-1.172-0.113-1.758-0.113c-8.672,0-15.704,6.86-15.704,15.409
		c0,0.898,0.118,1.688,0.235,2.587c0.116,0.787,0.351,1.687,0.586,2.475c1.288,3.599,3.75,6.522,7.031,8.436l62.463,62.422
		c4.218,4.836,11.601,5.51,16.523,1.462l0.118-0.113c1.171-0.787,2.344-1.799,3.516-3.149l122.346-146.1
		c0.233-0.225,0.353-0.45,0.586-0.676l0.234-0.336c0.117-0.113,0.117-0.225,0.234-0.337c1.758-2.475,2.696-5.512,2.696-8.773
		C402.795,321.057,395.764,314.084,387.092,314.084L387.092,314.084z M303.3,170.12c-130.197,0-235.668,101.225-235.668,226.181
		c0,124.957,105.471,226.181,235.668,226.181c130.199,0,235.669-101.224,235.669-226.181
		C538.97,271.345,433.383,170.12,303.3,170.12L303.3,170.12z M303.3,591.666c-112.853,0-204.262-87.393-204.262-195.365
		c0-107.86,91.409-195.363,204.262-195.363c112.855,0,204.263,87.503,204.263,195.363
		C507.563,504.273,416.038,591.666,303.3,591.666L303.3,591.666z"/>
</g>
</svg>
