<?xml version="1.0" encoding="utf-8"?>
<!-- Generator: Adobe Illustrator 16.0.0, SVG Export Plug-In . SVG Version: 6.00 Build 0)  -->
<!DOCTYPE svg PUBLIC "-//W3C//DTD SVG 1.1//EN" "http://www.w3.org/Graphics/SVG/1.1/DTD/svg11.dtd">
<svg version="1.1" id="图层_1" xmlns="http://www.w3.org/2000/svg" xmlns:xlink="http://www.w3.org/1999/xlink" x="0px" y="0px"
	 width="609.451px" height="609.451px" viewBox="0 0 609.451 609.451" enable-background="new 0 0 609.451 609.451"
	 xml:space="preserve">
<ellipse id="Oval-1-Copy-2" fill="#AACC03" cx="303.557" cy="305.902" rx="303.549" ry="303.549"/>
<g>
	<path fill="#FFFFFF" d="M464.694,180.22h-45.397c-20.351-53.224-64.183-91.316-114.277-91.316
		c-50.095,0-94.449,38.092-114.799,91.316h-44.354c-12.001,0-20.873,8.871-20.873,20.873v271.343
		c0,12.002,8.871,20.872,20.873,20.872h318.828c12.002,0,20.873-5.74,20.873-17.741V204.224
		C485.045,192.223,476.174,180.22,464.694,180.22L464.694,180.22z M234.575,147.868c20.872-23.481,44.354-38.614,70.967-38.614
		c26.612,0,50.094,12.001,70.967,35.484c8.87,12.001,14.089,23.481,19.828,35.482H213.702
		C219.442,168.219,225.704,156.74,234.575,147.868L234.575,147.868z M148.476,468.784V203.703h35.483c0,3.13-3.13,8.87-3.13,12.001
		c-5.74,3.13-12.002,12.001-12.002,20.873c0,14.61,12.002,23.481,23.482,23.481c14.61,0,23.481-12.002,23.481-23.481
		c0-8.871-5.74-17.742-14.611-20.873c0-3.131,1.044-7.828,3.131-12.001h197.767c0.521,3.13,2.608,8.87,2.608,12.001l0,0
		c-8.87,3.13-12.001,12.001-12.001,20.873c0,14.61,12.001,23.481,23.481,23.481c14.61,0,24.004-12.002,23.481-23.481
		c-0.521-11.48-4.175-18.786-14.61-20.873c0-3.131-1.565-7.828-2.087-12.001h36.526v265.081H148.476L148.476,468.784z"/>
</g>
</svg>
