<?xml version="1.0" encoding="utf-8"?>
<!-- Generator: Adobe Illustrator 16.0.0, SVG Export Plug-In . SVG Version: 6.00 Build 0)  -->
<!DOCTYPE svg PUBLIC "-//W3C//DTD SVG 1.1//EN" "http://www.w3.org/Graphics/SVG/1.1/DTD/svg11.dtd">
<svg version="1.1" id="图层_1" xmlns="http://www.w3.org/2000/svg" xmlns:xlink="http://www.w3.org/1999/xlink" x="0px" y="0px"
	 width="200px" height="200px" viewBox="0 0 200 200" enable-background="new 0 0 200 200" xml:space="preserve">
<ellipse id="Oval-1-Copy-2" fill="#E6133C" cx="100.754" cy="100.753" rx="100.753" ry="100.753"/>
<path fill="#FFFFFF" d="M166.453,54.373c-0.241-0.035-2.482-0.346-6.479-0.346c-7.469,0-20.664,1.117-37.604,6.946
	c17.401-9.855,35.216-10.747,35.46-10.758c1.511-0.062,2.685-1.337,2.625-2.845c-0.063-1.513-1.347-2.703-2.844-2.625
	c-1.134,0.045-22.194,1.061-41.68,13.661c14.734-13.755,36.287-17.922,36.57-17.977c1.483-0.276,2.465-1.703,2.193-3.188
	c-0.272-1.484-1.699-2.472-3.185-2.197c-1.569,0.291-36.117,6.941-49.472,32.437C88.657,42.045,54.18,35.401,52.611,35.11
	c-1.479-0.27-2.909,0.713-3.186,2.197c-0.275,1.489,0.709,2.915,2.196,3.188c0.287,0.053,21.875,4.206,36.612,18.008
	c-19.5-12.627-40.595-13.647-41.728-13.69c-1.498-0.091-2.784,1.114-2.845,2.625c-0.059,1.511,1.114,2.787,2.625,2.845
	c0.247,0.01,18.082,0.876,35.511,10.773c-16.964-5.845-30.175-6.964-37.651-6.964c-3.996,0-6.241,0.313-6.481,0.348
	c-2.132,0.311-3.662,2.223-3.501,4.372l6.817,90.945c0.158,2.085,1.859,3.721,3.948,3.795c33.775,1.211,54.436,16.484,54.639,16.635
	c0.729,0.551,1.601,0.832,2.478,0.832c0.621,0,1.246-0.141,1.824-0.428c0.36-0.177,0.682-0.41,0.965-0.673
	c2.555-1.815,22.543-15.294,54.357-16.432c2.088-0.074,3.789-1.71,3.947-3.795l6.813-90.948
	C170.111,56.594,168.585,54.687,166.453,54.373L166.453,54.373z M97.936,159.475c-8.689-4.87-25.64-12.432-49.037-13.945
	L42.66,62.323c0.458-0.011,0.951-0.019,1.486-0.019c9.456,0,28.807,1.915,53.79,14.47V159.475L97.936,159.475z M155.221,145.462
	c-23.397,1.512-40.347,9.076-49.039,13.948V76.708c24.982-12.555,44.336-14.465,53.791-14.465c0.531,0,1.026,0.005,1.485,0.017
	L155.221,145.462L155.221,145.462z"/>
</svg>
