<?xml version="1.0" encoding="utf-8"?>
<!-- Generator: Adobe Illustrator 19.0.0, SVG Export Plug-In . SVG Version: 6.00 Build 0)  -->
<svg version="1.1" id="图层_1" xmlns="http://www.w3.org/2000/svg" xmlns:xlink="http://www.w3.org/1999/xlink" x="0px" y="0px"
	 viewBox="0 0 595.3 841.9" style="enable-background:new 0 0 595.3 841.9;" xml:space="preserve">
<style type="text/css">
	.st0{fill-rule:evenodd;clip-rule:evenodd;fill:#51D400;}
</style>
<g>
	<path class="st0" d="M292.7,219.9c-87.8,0-159.7,71.9-159.7,159.7s71.9,159.7,159.7,159.7s159.7-71.9,159.7-159.7
		S380.5,219.9,292.7,219.9L292.7,219.9z M383.2,337L276.7,443.5c-2.7,2.7-5.3,2.7-10.6,2.7s-8,0-10.6-2.7l-53.2-53.2
		c-5.3-5.3-5.3-13.3,0-18.6c5.3-5.3,13.3-5.3,18.6,0l45.2,42.6l95.8-95.8c5.3-5.3,13.3-5.3,18.6,0
		C385.9,323.7,385.9,331.7,383.2,337L383.2,337z"/>
</g>
</svg>
