<?xml version="1.0" encoding="utf-8"?>
<!-- Generator: Adobe Illustrator 16.0.0, SVG Export Plug-In . SVG Version: 6.00 Build 0)  -->
<!DOCTYPE svg PUBLIC "-//W3C//DTD SVG 1.1//EN" "http://www.w3.org/Graphics/SVG/1.1/DTD/svg11.dtd">
<svg version="1.1" id="图层_1" xmlns="http://www.w3.org/2000/svg" xmlns:xlink="http://www.w3.org/1999/xlink" x="0px" y="0px"
	 width="612px" height="792px" viewBox="0 0 612 792" enable-background="new 0 0 612 792" xml:space="preserve">
<g>
	<path fill="#FFFFFF" d="M403.334,460.437c0,32.218-25.288,58.262-56.571,58.262H183.435c-31.284,0-56.572-26.044-56.572-58.262
		v-168.21c0-32.219,25.288-58.262,56.572-58.262h50.054c3.389,0,6.256,2.819,6.256,6.443c0,3.222-2.216,5.906-5.083,6.443
		c-9.777,3.49-18.64,7.518-26.071,12.083c-1.042,0.402-1.955,0.805-3.128,0.805h-22.029c-17.336,0-31.415,14.499-31.415,32.354
		v168.345c0,17.854,14.079,32.353,31.415,32.353h163.458c17.337,0,31.415-14.499,31.415-32.353V417.21
		c0-2.417,1.434-4.699,3.52-5.909c3.91-1.879,7.431-4.429,10.56-7.517c1.823-1.878,4.561-2.684,6.906-1.611
		c2.347,1.074,4.173,3.222,4.173,5.908v52.355H403.334z M374.526,385.393c-2.346,2.685-5.474,3.893-8.862,3.893
		c-1.564,0-3.39-0.403-4.954-1.075c-4.561-2.014-7.69-6.711-7.69-11.948v-38.797h-31.415c-43.146,0-70.648,8.457-86.03,26.447
		c-15.902,18.793-20.595,49.133-14.469,95.717c0.392,2.819-1.433,5.64-3.91,6.847c-0.782,0.268-1.565,0.402-2.347,0.402
		c-1.956,0-3.911-1.074-5.084-2.685c-1.434-2.014-32.587-47.524-32.587-87.932c0-54.235,16.555-116.525,144.557-116.525h31.414
		v-38.796c0-5.236,3.129-9.935,7.691-11.949c1.564-0.67,3.389-1.073,4.952-1.073c3.39,0,6.52,1.476,8.864,3.893l75.473,77.729
		c4.954,5.101,4.954,13.155,0,18.257L374.526,385.393L374.526,385.393z"/>
</g>
</svg>
