<?xml version="1.0" encoding="utf-8"?>
<!-- Generator: Adobe Illustrator 17.0.0, SVG Export Plug-In . SVG Version: 6.00 Build 0)  -->
<!DOCTYPE svg PUBLIC "-//W3C//DTD SVG 1.1//EN" "http://www.w3.org/Graphics/SVG/1.1/DTD/svg11.dtd">
<svg version="1.1" id="图层_1" xmlns="http://www.w3.org/2000/svg" xmlns:xlink="http://www.w3.org/1999/xlink" x="0px" y="0px"
	 width="200px" height="200px" viewBox="0 0 200 200" enable-background="new 0 0 200 200" xml:space="preserve">
<g>
	<g transform="scale(0.2, 0.2)">
		<path fill="#3CB034" d="M668.225,328.749c10.017,0,19.927,0.736,29.758,1.83c-26.738-124.499-159.848-217-311.785-217
			c-169.864,0-309.009,115.779-309.009,262.797c0,84.863,46.293,154.55,123.65,208.602l-30.906,92.954l108.023-54.168
			c38.653,7.651,69.666,15.516,108.24,15.516c9.697,0,19.312-0.479,28.847-1.228c-6.037-20.659-9.535-42.297-9.535-64.748
			C405.51,438.306,521.441,328.749,668.225,328.749z M502.076,244.97c23.267,0,38.68,15.307,38.68,38.559
			c0,23.159-15.413,38.679-38.68,38.679c-23.16,0-46.4-15.52-46.4-38.679C455.676,260.276,478.915,244.97,502.076,244.97z
			 M285.812,322.207c-23.157,0-46.531-15.52-46.531-38.679c0-23.252,23.373-38.559,46.531-38.559
			c23.159,0,38.573,15.307,38.573,38.559C324.386,306.687,308.971,322.207,285.812,322.207z M950.254,569.591
			c0-123.539-123.626-224.239-262.474-224.239c-147.025,0-262.821,100.7-262.821,224.239c0,123.752,115.797,224.239,262.821,224.239
			c30.772,0,61.811-7.76,92.717-15.505l84.757,46.411l-23.239-77.221C904.04,700.983,950.254,639.279,950.254,569.591z
			 M602.566,530.926c-15.386,0-30.906-15.307-30.906-30.919c0-15.397,15.52-30.902,30.906-30.902
			c23.373,0,38.68,15.505,38.68,30.902C641.246,515.619,625.939,530.926,602.566,530.926z M772.537,530.926
			c-15.28,0-30.693-15.307-30.693-30.919c0-15.397,15.413-30.902,30.693-30.902c23.159,0,38.677,15.505,38.677,30.902
			C811.215,515.619,795.697,530.926,772.537,530.926z"/>
	</g>
</g>
</svg>
