<?xml version="1.0" encoding="utf-8"?>
<!-- Generator: Adobe Illustrator 16.0.0, SVG Export Plug-In . SVG Version: 6.00 Build 0)  -->
<!DOCTYPE svg PUBLIC "-//W3C//DTD SVG 1.1//EN" "http://www.w3.org/Graphics/SVG/1.1/DTD/svg11.dtd">
<svg version="1.1" id="图层_1" xmlns="http://www.w3.org/2000/svg" xmlns:xlink="http://www.w3.org/1999/xlink" x="0px" y="0px"
	 width="200px" height="200px" viewBox="0 0 200 200" enable-background="new 0 0 200 200" xml:space="preserve">
<path fill="#AACC02" d="M115.804,27.376h0.403c2.31,0,4.199-1.889,4.199-4.198v-3.335h2.889c2.311,0,4.198-1.889,4.198-4.199v-3.418
	H48.317v3.418c0,2.31,1.889,4.199,4.198,4.199h2.784v3.335c0,2.309,1.889,4.198,4.199,4.198h0.415
	c0.002,10.125,3.18,19.677,11.175,26.242c0.703,0.632,2.372,2.141,3.22,2.968c0.65,0.73,1.163,1.46,1.198,1.978
	c0.086,1.239-1.447,2.802-2.668,3.841c-0.02,0.018-0.036,0.036-0.05,0.055c-9.243,6.563-12.869,16.717-12.875,27.525h-0.415
	c-2.309,0-4.198,1.889-4.198,4.198v3.335h-2.784c-2.309,0-4.198,1.889-4.198,4.198v3.419h79.176v-3.419
	c0-2.309-1.888-4.198-4.198-4.198h-2.889v-3.334c0-2.31-1.89-4.199-4.199-4.199h-0.403c-0.007-10.783-3.695-20.879-12.883-27.446
	c-0.016-0.048-0.045-0.095-0.093-0.134c-1.221-1.039-2.752-2.602-2.667-3.841c0.036-0.518,0.548-1.247,1.199-1.977
	c1.092-1.064,3.544-3.26,3.544-3.26l-0.021-0.015C112.641,46.759,115.801,37.361,115.804,27.376z M102.555,46.909
	c0,0-0.786,0.943-2.549,2.364c-0.837,0.852-1.715,1.631-2.629,2.324c-1.45,1.429-3.043,3.298-3.362,4.87h-0.089
	c-0.249,1.344-0.671,5.776,3.547,9.354c1.819,1.542,2.321,2.023,2.224,2.009c0.103,0.102,0.207,0.201,0.31,0.304
	c1.763,1.421,2.549,2.364,2.549,2.364c6.175,5.181,6.839,16.645,6.907,19.485h-7.847c0.208-7.249-4.162-12.205-4.947-13.232
	c-0.79-1.038-2.173-2.469-5.333-6.124c-3.162-3.655-1.876-9.533-1.186-12.644c0.692-3.111,4.989-7.458,6.521-9.285
	c1.53-1.828,1.382-3.162,1.382-3.162h-9.285h-0.586h-0.408h-0.982h-8.89c0,0-0.148,1.334,1.383,3.162
	c1.531,1.827,5.828,6.174,6.519,9.285c0.692,3.111,1.976,8.989-1.185,12.644c-3.161,3.655-4.544,5.086-5.334,6.124
	c-0.783,1.027-5.153,5.984-4.945,13.232h-7.974c0.068-2.84,0.732-14.304,6.907-19.485c0,0,0.787-0.943,2.55-2.364
	c0.102-0.104,0.206-0.203,0.309-0.304c-0.097,0.015,0.407-0.466,2.225-2.009c4.217-3.578,3.794-8.01,3.547-9.354h-0.09
	c-0.318-1.572-1.911-3.441-3.361-4.87c-0.914-0.692-1.793-1.472-2.629-2.324c-1.763-1.421-2.55-2.364-2.55-2.364
	c-6.155-5.165-6.834-16.571-6.906-19.457h43.096C109.389,30.338,108.711,41.745,102.555,46.909z"/>
</svg>
