<?xml version="1.0" encoding="utf-8"?>
<!-- Generator: Adobe Illustrator 16.0.0, SVG Export Plug-In . SVG Version: 6.00 Build 0)  -->
<!DOCTYPE svg PUBLIC "-//W3C//DTD SVG 1.1//EN" "http://www.w3.org/Graphics/SVG/1.1/DTD/svg11.dtd">
<svg version="1.1" id="图层_1" xmlns="http://www.w3.org/2000/svg" xmlns:xlink="http://www.w3.org/1999/xlink" x="0px" y="0px"
	 width="609.451px" height="609.451px" viewBox="0 0 609.451 609.451" enable-background="new 0 0 609.451 609.451"
	 xml:space="preserve">
<path fill="#FFAA0D" d="M489.901,320.132h-71.101c-7.772,0-14.174,6.402-14.174,14.176v56.927c0,7.772,6.401,14.174,14.174,14.174
	h71.101v71.102c0,7.774-6.401,14.175-14.174,14.175H134.396c-7.773,0-14.174-6.4-14.174-14.175V206.508h355.735
	c7.772,0,14.174,6.401,14.174,14.174v99.449H489.901z M489.901,362.885v14.175h-56.926v-14.175v-14.174h56.926V362.885
	L489.901,362.885z M461.324,92.654v85.276H184.006L461.324,92.654L461.324,92.654z M489.901,177.93V78.251
	c0-7.773-3.428-12.117-10.744-15.089c-5.716-2.286-11.203-0.914-17.833,0.915L91.415,177.93v312.983
	c0,15.774,12.803,28.349,28.349,28.349h369.91c15.774,0,28.349-12.803,28.349-28.349V206.508
	C518.251,190.733,505.677,177.93,489.901,177.93L489.901,177.93z"/>
</svg>
