<?xml version="1.0" encoding="utf-8"?>
<!-- Generator: Adobe Illustrator 16.0.0, SVG Export Plug-In . SVG Version: 6.00 Build 0)  -->
<!DOCTYPE svg PUBLIC "-//W3C//DTD SVG 1.1//EN" "http://www.w3.org/Graphics/SVG/1.1/DTD/svg11.dtd">
<svg version="1.1" id="图层_1" xmlns="http://www.w3.org/2000/svg" xmlns:xlink="http://www.w3.org/1999/xlink" x="0px" y="0px"
	 width="609.451px" height="609.451px" viewBox="0 0 609.451 609.451" enable-background="new 0 0 609.451 609.451"
	 xml:space="preserve">
<path fill="#25ABEE" d="M195.017,364.849c-7.15,0.795-20.262,3.973-27.412,10.33c-21.454,18.673-8.741,53.236,34.961,53.236
	c25.428,0,50.854-16.289,70.718-42.112C245.076,372.398,221.239,362.467,195.017,364.849z"/>
<path fill="#25ABEE" d="M449.595,368.479c66.588,22.195,81.603,23.503,81.603,23.503V153.048c0-40.475-33.294-73.769-73.768-73.769
	H143.422c-41.127,0-73.769,33.294-73.769,73.769v313.356c0,40.474,33.294,73.768,73.769,73.768H457.43
	c41.127,0,73.768-33.294,73.768-73.768v-3.265c0,0-120.119-50.267-180.833-78.992c-40.474,49.614-93.352,80.298-147.536,80.298
	c-92.049,0-123.384-80.298-79.645-133.176c9.793-11.752,25.459-22.848,50.92-28.726c39.169-9.79,101.841,5.878,160.593,25.461
	c10.447-19.583,19.588-40.476,26.115-63.324H179.979v-18.278h93.355v-32.641h-112.94v-18.279h112.94v-46.351
	c0,0,0-7.833,7.832-7.833h45.697v54.837h111.634v18.279H326.212v32.641h90.742c-8.485,35.906-22.195,68.547-38.516,97.271
	C406.51,352.811,431.315,361.952,449.595,368.479z"/>
</svg>
