<?xml version="1.0" encoding="utf-8"?>
<!-- Generator: Adobe Illustrator 19.0.0, SVG Export Plug-In . SVG Version: 6.00 Build 0)  -->
<svg version="1.1" id="图层_1" xmlns="http://www.w3.org/2000/svg" xmlns:xlink="http://www.w3.org/1999/xlink" x="0px" y="0px"
	 viewBox="14 -14.9 200 200" style="enable-background:new 14 -14.9 200 200;" xml:space="preserve">
<style type="text/css">
	.st0{fill:#AACC03;}
	.st1{fill-rule:evenodd;clip-rule:evenodd;fill:#FFFFFF;}
</style>
<ellipse id="Oval-1-Copy-2" class="st0" cx="113.4" cy="84.5" rx="99.4" ry="99.4"/>
<g>
	<path class="st1" d="M169.3,49.1h-8.6c-1.7,0-2.6,0.9-2.6,1.7l-7.7,19.7h-24.8l15.4-47.9c0-0.9,0-1.7-0.9-2.6
		c-0.9-0.9-1.7-0.9-2.6-0.9h-16.3c-0.9,0-1.7,0.9-2.6,1.7L87.1,70.5H65.7c-14.5,0-28.2,13.7-28.2,29.1c0,1.7,1.7,3.4,3.4,3.4h46.2
		l32.5,50.5c0.9,0.9,1.7,1.7,2.6,1.7h16.3c0.9,0,1.7-0.9,2.6-0.9c0.9-0.9,0.9-1.7,0.9-2.6l-15.4-47.9h27.4
		c10.3,0,19.7-9.4,19.7-20.5V52.5C172.7,50.8,171,49.1,169.3,49.1L169.3,49.1z"/>
</g>
</svg>
